<svg
  width="200px"
  height="200px"
  viewBox="0 0 24 24"
  fill="black"
  xmlns="http://www.w3.org/2000/svg"
>
  <path
    fill-rule="#ffffff"
    clip-rule="#ffffff"
    d="M5 3C4.44772 3 4 3.44772 4 4V19C4 19.2761 4.22386 19.5 4.5 19.5C4.59038 19.5 4.67685 19.4704 4.75 19.4194C5.54554 18.8628 6.69062 18.5 8 18.5C9.30938 18.5 10.4545 18.8628 11.25 19.4194C11.3232 19.4704 11.4096 19.5 11.5 19.5C11.7761 19.5 12 19.2761 12 19V5H6V14C6 14.2761 5.77614 14.5 5.5 14.5C5.22386 14.5 5 14.2761 5 14V4C5 3.44772 4.44772 3 4 3H5ZM8 3C8.55228 3 9 3.44772 9 4V19.199C8.35345 18.8471 7.54812 18.5 6.5 18.5C5.45188 18.5 4.64655 18.8471 4 19.199V4C4 3.44772 4.44772 3 5 3H8ZM6.5 17.5C6.22386 17.5 6 17.2761 6 17V6C6 5.72386 6.22386 5.5 6.5 5.5C6.77614 5.5 7 5.72386 7 6V17C7 17.2761 6.77614 17.5 6.5 17.5ZM17.5 3C18.0523 3 18.5 3.44772 18.5 4V19C18.5 19.2761 18.2761 19.5 18 19.5C17.9096 19.5 17.8232 19.4704 17.75 19.4194C16.9545 18.8628 15.8094 18.5 14.5 18.5C13.1906 18.5 12.0455 18.8628 11.25 19.4194C11.1768 19.4704 11.0904 19.5 11 19.5C10.7239 19.5 10.5 19.2761 10.5 19V5H17V14C17 14.2761 16.7761 14.5 16.5 14.5C16.2239 14.5 16 14.2761 16 14V4C16 3.44772 16.4477 3 17 3H17.5ZM14.5 3C15.0523 3 15.5 3.44772 15.5 4V19.199C15.1466 18.8471 14.5481 18.5 14.5 18.5C13.4519 18.5 12.6466 18.8471 12 19.199V4C12 3.44772 12.4477 3 13 3H14.5ZM13.5 17.5C13.2239 17.5 13 17.2761 13 17V6C13 5.72386 13.2239 5.5 13.5 5.5C13.7761 5.5 14 5.72386 14 6V17C14 17.2761 13.7761 17.5 13.5 17.5Z"
    fill="#fff"
  />
  <path
    d="M12 2C11.4477 2 11 2.44772 11 3V19.0333C10.3243 18.734 9.4881 18.5 8.5 18.5C7.5119 18.5 6.6757 18.734 6 19.0333V3C6 2.44772 5.55228 2 5 2H12ZM8.5 17.5C8.22386 17.5 8 17.2761 8 17V6C8 5.72386 8.22386 5.5 8.5 5.5C8.77614 5.5 9 5.72386 9 6V17C9 17.2761 8.77614 17.5 8.5 17.5ZM17 3C17.5523 3 18 3.44772 18 4V19.0333C17.3243 18.734 16.4881 18.5 15.5 18.5C14.5119 18.5 13.6757 18.734 13 19.0333V4C13 3.44772 12.5523 3 12 3H17ZM15.5 17.5C15.2239 17.5 15 17.2761 15 17V6C15 5.72386 15.2239 5.5 15.5 5.5C15.7761 5.5 16 5.72386 16 6V17C16 17.2761 15.7761 17.5 15.5 17.5Z"
    fill="#ffffff"
  />
</svg>
